<svg width="35" height="40" viewBox="0 0 35 40" fill="none" xmlns="http://www.w3.org/2000/svg">
<path d="M5.75 36.25H2.625C2.45924 36.25 2.30027 36.3158 2.18306 36.4331C2.06585 36.5503 2 36.7092 2 36.875C2 37.0408 2.06585 37.1997 2.18306 37.3169C2.30027 37.4342 2.45924 37.5 2.625 37.5H5.75C5.91576 37.5 6.07473 37.4342 6.19194 37.3169C6.30915 37.1997 6.375 37.0408 6.375 36.875C6.375 36.7092 6.30915 36.5503 6.19194 36.4331C6.07473 36.3158 5.91576 36.25 5.75 36.25Z" fill="#333333"/>
<path d="M8.25 36.25H7.625C7.45924 36.25 7.30027 36.3158 7.18306 36.4331C7.06585 36.5503 7 36.7092 7 36.875C7 37.0408 7.06585 37.1997 7.18306 37.3169C7.30027 37.4342 7.45924 37.5 7.625 37.5H8.25C8.41576 37.5 8.57473 37.4342 8.69194 37.3169C8.80915 37.1997 8.875 37.0408 8.875 36.875C8.875 36.7092 8.80915 36.5503 8.69194 36.4331C8.57473 36.3158 8.41576 36.25 8.25 36.25Z" fill="#333333"/>
<path d="M3.875 11.875H23.875C24.0408 11.875 24.1997 11.8092 24.3169 11.6919C24.4342 11.5747 24.5 11.4158 24.5 11.25V8.75C24.5 8.58424 24.4342 8.42527 24.3169 8.30806C24.1997 8.19085 24.0408 8.125 23.875 8.125H3.875C3.70924 8.125 3.55027 8.19085 3.43306 8.30806C3.31585 8.42527 3.25 8.58424 3.25 8.75V11.25C3.25 11.4158 3.31585 11.5747 3.43306 11.6919C3.55027 11.8092 3.70924 11.875 3.875 11.875ZM4.5 9.375H23.25V10.625H4.5V9.375Z" fill="#333333"/>
<path d="M3.875 16.875H23.875C24.0408 16.875 24.1997 16.8092 24.3169 16.6919C24.4342 16.5747 24.5 16.4158 24.5 16.25V13.75C24.5 13.5842 24.4342 13.4253 24.3169 13.3081C24.1997 13.1908 24.0408 13.125 23.875 13.125H3.875C3.70924 13.125 3.55027 13.1908 3.43306 13.3081C3.31585 13.4253 3.25 13.5842 3.25 13.75V16.25C3.25 16.4158 3.31585 16.5747 3.43306 16.6919C3.55027 16.8092 3.70924 16.875 3.875 16.875ZM4.5 14.375H23.25V15.625H4.5V14.375Z" fill="#333333"/>
<path d="M3.875 21.875H23.875C24.0408 21.875 24.1997 21.8092 24.3169 21.6919C24.4342 21.5747 24.5 21.4158 24.5 21.25V18.75C24.5 18.5842 24.4342 18.4253 24.3169 18.3081C24.1997 18.1908 24.0408 18.125 23.875 18.125H3.875C3.70924 18.125 3.55027 18.1908 3.43306 18.3081C3.31585 18.4253 3.25 18.5842 3.25 18.75V21.25C3.25 21.4158 3.31585 21.5747 3.43306 21.6919C3.55027 21.8092 3.70924 21.875 3.875 21.875ZM4.5 19.375H23.25V20.625H4.5V19.375Z" fill="#333333"/>
<path d="M15.75 23.125H3.875C3.70924 23.125 3.55027 23.1908 3.43306 23.3081C3.31585 23.4253 3.25 23.5842 3.25 23.75C3.25 23.9158 3.31585 24.0747 3.43306 24.1919C3.55027 24.3092 3.70924 24.375 3.875 24.375H15.75C15.9158 24.375 16.0747 24.3092 16.1919 24.1919C16.3092 24.0747 16.375 23.9158 16.375 23.75C16.375 23.5842 16.3092 23.4253 16.1919 23.3081C16.0747 23.1908 15.9158 23.125 15.75 23.125Z" fill="#333333"/>
<path d="M12 25H3.875C3.70924 25 3.55027 25.0658 3.43306 25.1831C3.31585 25.3003 3.25 25.4592 3.25 25.625C3.25 25.7908 3.31585 25.9497 3.43306 26.0669C3.55027 26.1842 3.70924 26.25 3.875 26.25H12C12.1658 26.25 12.3247 26.1842 12.4419 26.0669C12.5592 25.9497 12.625 25.7908 12.625 25.625C12.625 25.4592 12.5592 25.3003 12.4419 25.1831C12.3247 25.0658 12.1658 25 12 25Z" fill="#333333"/>
<path d="M5.125 28.125C5.29076 28.125 5.44973 28.0592 5.56694 27.9419C5.68415 27.8247 5.75 27.6658 5.75 27.5C5.75 27.3342 5.68415 27.1753 5.56694 27.0581C5.44973 26.9408 5.29076 26.875 5.125 26.875H3.875C3.70924 26.875 3.55027 26.9408 3.43306 27.0581C3.31585 27.1753 3.25 27.3342 3.25 27.5C3.25 27.6658 3.31585 27.8247 3.43306 27.9419C3.55027 28.0592 3.70924 28.125 3.875 28.125H5.125Z" fill="#333333"/>
<path d="M7.625 28.125C7.79076 28.125 7.94973 28.0592 8.06694 27.9419C8.18415 27.8247 8.25 27.6658 8.25 27.5C8.25 27.3342 8.18415 27.1753 8.06694 27.0581C7.94973 26.9408 7.79076 26.875 7.625 26.875H7C6.83424 26.875 6.67527 26.9408 6.55806 27.0581C6.44085 27.1753 6.375 27.3342 6.375 27.5C6.375 27.6658 6.44085 27.8247 6.55806 27.9419C6.67527 28.0592 6.83424 28.125 7 28.125H7.625Z" fill="#333333"/>
<path d="M34.5 30C34.4977 28.1198 33.7901 26.3088 32.5172 24.925C31.2442 23.5412 29.4985 22.6852 27.625 22.5262V6.25C27.625 6.16792 27.6088 6.08665 27.5774 6.01082C27.546 5.93499 27.5 5.86609 27.442 5.80805L22.442 0.808047C22.3839 0.750011 22.315 0.703975 22.2392 0.672568C22.1634 0.641161 22.0821 0.624997 22 0.625H0.75C0.58424 0.625 0.425269 0.690848 0.308058 0.808058C0.190848 0.925268 0.125 1.08424 0.125 1.25V38.75C0.125 38.9158 0.190848 39.0747 0.308058 39.1919C0.425269 39.3092 0.58424 39.375 0.75 39.375H27C27.1658 39.375 27.3247 39.3092 27.4419 39.1919C27.5592 39.0747 27.625 38.9158 27.625 38.75V37.4738C29.4985 37.3148 31.2442 36.4588 32.5172 35.075C33.7901 33.6912 34.4977 31.8802 34.5 30ZM22.625 2.75883L25.4912 5.625H22.625V2.75883ZM1.375 38.125V1.875H21.375V6.25C21.375 6.41576 21.4408 6.57473 21.5581 6.69194C21.6753 6.80915 21.8342 6.875 22 6.875H26.375V22.5262C24.501 22.6835 22.7544 23.5389 21.4814 24.9232C20.2084 26.3074 19.5019 28.1194 19.5019 30C19.5019 31.8806 20.2084 33.6926 21.4814 35.0768C22.7544 36.4611 24.501 37.3165 26.375 37.4738V38.125H1.375ZM27 36.25C25.7639 36.25 24.5555 35.8834 23.5277 35.1967C22.4999 34.5099 21.6988 33.5338 21.2258 32.3918C20.7527 31.2497 20.6289 29.9931 20.8701 28.7807C21.1112 27.5683 21.7065 26.4547 22.5806 25.5806C23.4547 24.7065 24.5683 24.1112 25.7807 23.8701C26.9931 23.6289 28.2497 23.7527 29.3918 24.2258C30.5338 24.6988 31.5099 25.4999 32.1967 26.5277C32.8834 27.5555 33.25 28.7639 33.25 30C33.2481 31.657 32.589 33.2456 31.4173 34.4173C30.2456 35.589 28.657 36.2481 27 36.25Z" fill="#333333"/>
<path d="M31.8169 27.6831C31.7589 27.625 31.69 27.579 31.6141 27.5476C31.5383 27.5162 31.457 27.5 31.3749 27.5C31.2929 27.5 31.2116 27.5162 31.1358 27.5476C31.0599 27.579 30.991 27.625 30.933 27.6831L26.9031 31.713L24.1965 30.0891C24.1261 30.0469 24.0481 30.0189 23.9669 30.0068C23.8858 29.9947 23.803 29.9988 23.7234 30.0187C23.6437 30.0386 23.5688 30.074 23.5029 30.1228C23.4369 30.1717 23.3812 30.2331 23.339 30.3035C23.2968 30.3738 23.2688 30.4519 23.2567 30.533C23.2447 30.6142 23.2487 30.697 23.2686 30.7766C23.2885 30.8562 23.3239 30.9312 23.3728 30.9971C23.4216 31.0631 23.483 31.1187 23.5534 31.161L26.6784 33.036C26.7979 33.1077 26.9379 33.1375 27.0763 33.1205C27.2146 33.1035 27.3433 33.0407 27.4419 32.9422L31.8169 28.5672C31.875 28.5092 31.921 28.4403 31.9525 28.3644C31.9839 28.2886 32.0001 28.2072 32.0001 28.1251C32.0001 28.043 31.9839 27.9617 31.9525 27.8859C31.921 27.81 31.875 27.7411 31.8169 27.6831Z" fill="#333333"/>
</svg>
