<svg width="38" height="34" viewBox="0 0 38 34" fill="none" xmlns="http://www.w3.org/2000/svg">
<path d="M36.0545 15.9445H35.0676C33.6379 10.5449 28.0512 6.54135 21.3325 5.95526V4.58716C21.7006 4.34745 21.9999 4.03755 22.2072 3.68152C22.4145 3.3255 22.5242 2.93292 22.5278 2.53426C22.5278 1.86213 22.2193 1.21753 21.6701 0.742268C21.1209 0.267002 20.376 0 19.5993 0C18.8226 0 18.0777 0.267002 17.5285 0.742268C16.9793 1.21753 16.6708 1.86213 16.6708 2.53426C16.6708 3.378 17.1137 4.12628 17.8949 4.58716V5.95533C11.0981 6.54148 5.52273 10.5454 4.09297 15.9445H3.13914C2.18218 15.9445 1.36859 16.5909 1.33976 17.4184C1.33284 17.6226 1.37344 17.8259 1.45916 18.0163C1.54488 18.2067 1.67396 18.3802 1.83874 18.5265C2.00351 18.6728 2.2006 18.789 2.41829 18.8681C2.63599 18.9472 2.86984 18.9875 3.10593 18.9868H3.19757L3.50226 20.4143C3.58708 20.8112 3.82998 21.1699 4.18872 21.4278C4.54745 21.6858 4.99934 21.8268 5.46578 21.8263H10.7962C10.2447 22.0195 9.7247 22.274 9.24929 22.5836C9.23906 22.5903 9.22906 22.5971 9.21953 22.6047L8.27218 23.3345C7.91859 23.6063 7.50059 23.8078 7.0475 23.9251L7.02898 23.865C6.98048 23.7262 6.88196 23.6043 6.7478 23.5173C6.61364 23.4303 6.45086 23.3826 6.2832 23.3813H0.780856C0.659717 23.3832 0.540686 23.4091 0.432847 23.4569C0.325009 23.5047 0.231211 23.5732 0.158613 23.6571C0.0860149 23.7411 0.0365339 23.8382 0.013946 23.9412C-0.00864187 24.0443 -0.00373979 24.1504 0.0282782 24.2515L2.93554 33.2906C2.98121 33.4335 3.07927 33.5598 3.21497 33.6504C3.35067 33.7409 3.51668 33.7909 3.68804 33.7928H9.51023C9.63273 33.7916 9.75323 33.7658 9.8622 33.7173C9.97118 33.6689 10.0656 33.5992 10.1381 33.5137C10.2106 33.4282 10.2591 33.3294 10.2798 33.2249C10.3006 33.1204 10.2929 33.0131 10.2575 32.9117L9.48679 30.7227L12.27 29.1993C12.6366 29.024 13.0665 28.9759 13.4727 29.0647C13.4823 29.0668 13.4921 29.0684 13.5019 29.07L19.2214 29.9813C19.481 30.0219 19.743 30.0506 20.0061 30.0671C21.6362 30.1585 23.2541 29.7696 24.5962 28.9637L33.771 23.5123C33.8695 23.4538 33.9385 23.3649 33.9638 23.2639C33.9891 23.1628 33.9689 23.0572 33.9073 22.9686C33.6895 22.6545 33.3909 22.3881 33.0349 22.19C32.6788 21.9919 32.2748 21.8675 31.8542 21.8263H33.6471C34.1055 21.8255 34.5496 21.6885 34.9054 21.4384C35.2611 21.1883 35.5069 20.8401 35.6017 20.452L35.9537 18.9868H36.0216C36.9785 18.9868 37.7921 18.3404 37.8209 17.513C37.8278 17.3088 37.7872 17.1054 37.7015 16.915C37.6157 16.7246 37.4866 16.5511 37.3219 16.4048C37.1571 16.2585 36.9599 16.1423 36.7422 16.0632C36.5245 15.9842 36.2906 15.9438 36.0545 15.9445ZM17.5891 2.53426C17.5891 2.19344 17.7059 1.86028 17.9247 1.57689C18.1435 1.29351 18.4545 1.07263 18.8183 0.942199C19.1822 0.811768 19.5826 0.777638 19.9688 0.844125C20.3551 0.910612 20.7099 1.07473 20.9884 1.31572C21.2669 1.55672 21.4565 1.86377 21.5334 2.19803C21.6102 2.5323 21.5708 2.87878 21.42 3.19366C21.2693 3.50853 21.0141 3.77765 20.6866 3.96699C20.3591 4.15633 19.9741 4.25738 19.5803 4.25737C19.0524 4.25685 18.5463 4.07514 18.173 3.75211C17.7997 3.42908 17.5897 2.9911 17.5891 2.53426ZM20.395 4.97745V5.89637C20.0825 5.8863 19.8741 5.88076 19.6137 5.88076C19.3534 5.88076 19.0669 5.8863 18.8325 5.89637V4.97745C19.0869 5.0387 19.3497 5.06938 19.6137 5.06866C19.8774 5.06492 20.1396 5.0343 20.395 4.97745ZM19.5803 6.69204C26.5569 6.69204 32.5675 10.554 34.1037 15.9445H5.05672C6.59336 10.5545 12.6053 6.69204 19.5803 6.69204ZM3.80679 32.9816L0.986481 24.1926H6.17625L9.30125 32.9816H3.80679ZM32.8325 23.0857L24.0654 28.2948C22.8986 28.9965 21.4917 29.336 20.0737 29.2579C19.8443 29.2435 19.6161 29.2185 19.3898 29.1831L13.6856 28.2742C13.048 28.1382 12.3745 28.2173 11.802 28.4955C11.7946 28.4991 11.7873 28.5028 11.7802 28.5066L9.20007 29.9182L7.32625 24.7011C7.90689 24.5491 8.44237 24.2896 8.89554 23.9406L9.8282 23.2222C10.6873 22.6636 11.7079 22.3211 12.7775 22.2322C13.8472 22.1433 14.9244 22.3115 15.8907 22.7184L16.283 22.8826C16.961 23.1655 17.7038 23.3128 18.4565 23.3137H22.2612C22.8014 23.3143 23.325 23.475 23.745 23.7689C24.165 24.0629 24.456 24.4725 24.5695 24.9295L21.8657 24.8237C20.8606 24.7844 19.8535 24.8246 18.8569 24.9439C18.7959 24.9512 18.7372 24.9688 18.6841 24.9958C18.631 25.0227 18.5845 25.0584 18.5474 25.1009C18.5102 25.1434 18.4831 25.1918 18.4676 25.2434C18.452 25.2949 18.4484 25.3486 18.4568 25.4014C18.4653 25.4542 18.4857 25.505 18.5168 25.5509C18.5479 25.5969 18.5892 25.6371 18.6383 25.6692C18.6874 25.7014 18.7434 25.7248 18.8029 25.7383C18.8625 25.7517 18.9246 25.7549 18.9855 25.7476C19.9256 25.6351 20.8754 25.5971 21.8234 25.6341L25.0689 25.7612C25.076 25.7612 25.0831 25.7616 25.0901 25.7616C25.2145 25.7616 25.3337 25.7189 25.4216 25.6428C25.5095 25.5668 25.5589 25.4636 25.5589 25.356C25.5589 25.3034 25.5569 25.2512 25.5537 25.1993L30.6759 22.8127C31.0213 22.6509 31.4179 22.59 31.8066 22.6392C32.1952 22.6884 32.5551 22.845 32.8325 23.0857ZM15.8766 21.8263H22.7349L21.2983 22.5024H18.4565C17.8452 22.5017 17.2419 22.382 16.6913 22.1523L16.2989 21.9881C16.1595 21.9298 16.0188 21.8759 15.8766 21.8263ZM24.1773 23.0356C23.8448 22.8289 23.4706 22.6778 23.074 22.5901L23.8852 22.2084C23.889 22.2066 23.893 22.2048 23.8963 22.203C24.5198 21.8902 25.3117 21.9048 25.9623 22.203L24.1773 23.0356ZM27.7309 22.3001C28.2173 22.0897 28.8247 22.251 29.2319 22.5647L25.3569 24.372C25.2427 24.105 25.0831 23.8544 24.8834 23.6283L27.7309 22.3001ZM29.6773 21.8263H31.2282C30.8787 21.8612 30.5401 21.9535 30.2306 22.0984L30.0925 22.1629C29.9693 22.0375 29.83 21.9246 29.6773 21.8263ZM36.0545 18.1756H11.0981C10.9738 18.1756 10.8546 18.2183 10.7667 18.2944C10.6788 18.3704 10.6294 18.4736 10.6294 18.5812C10.6294 18.6888 10.6788 18.792 10.7667 18.868C10.8546 18.9441 10.9738 18.9868 11.0981 18.9868H34.9966L34.6841 20.287C34.6337 20.4928 34.5033 20.6774 34.3145 20.8099C34.1258 20.9424 33.8902 21.0149 33.6471 21.0151H5.46578C5.21852 21.0155 4.97892 20.9409 4.78868 20.8042C4.59844 20.6675 4.46961 20.4774 4.42461 20.2671L4.15109 18.9868H8.44187C8.56619 18.9868 8.68542 18.9441 8.77333 18.868C8.86123 18.792 8.91062 18.6888 8.91062 18.5812C8.91062 18.4736 8.86123 18.3704 8.77333 18.2944C8.68542 18.2183 8.56619 18.1756 8.44187 18.1756H3.12375C2.90359 18.1777 2.69127 18.1049 2.53271 17.9727C2.37415 17.8405 2.28207 17.6596 2.2764 17.4691C2.27619 17.375 2.29754 17.2818 2.33922 17.1949C2.3809 17.108 2.44208 17.0291 2.51922 16.9627C2.59636 16.8964 2.68793 16.8439 2.78864 16.8084C2.88934 16.7729 2.99719 16.755 3.10593 16.7558H36.0369C36.2571 16.7536 36.4694 16.8265 36.628 16.9587C36.7865 17.0909 36.8786 17.2718 36.8842 17.4622C36.8844 17.5564 36.8631 17.6496 36.8214 17.7365C36.7797 17.8234 36.7185 17.9024 36.6414 17.9687C36.5642 18.035 36.4726 18.0875 36.3719 18.123C36.2712 18.1585 36.1633 18.1764 36.0545 18.1756Z" fill="#333333"/>
</svg>
