<svg width="38" height="38" viewBox="0 0 38 38" fill="none" xmlns="http://www.w3.org/2000/svg">
<path d="M32.5988 21.0894C32.1008 20.6841 31.5074 20.4132 30.875 20.3025C30.875 20.285 30.875 20.2675 30.875 20.25C30.8735 18.9244 30.3462 17.6535 29.4089 16.7161C28.4715 15.7788 27.2006 15.2515 25.875 15.25C25.4855 15.2498 25.0973 15.2962 24.7188 15.3881C24.1284 14.5532 23.3419 13.8762 22.4286 13.4164C21.5152 12.9567 20.5029 12.7284 19.4806 12.7516C18.4583 12.7748 17.4574 13.0488 16.5658 13.5495C15.6743 14.0502 14.9194 14.7623 14.3675 15.6231C13.8637 15.3774 13.3105 15.2498 12.75 15.25C11.7951 15.2509 10.8764 15.6157 10.181 16.2701C9.48556 16.9245 9.0657 17.8194 9.00688 18.7725C7.63748 19.2097 6.41161 20.0087 5.45875 21.085C0.88375 21.7775 0.25 22.63 0.25 23.375C0.25 31.3013 8.66125 37.75 19 37.75C29.3387 37.75 37.75 31.3013 37.75 23.375C37.75 22.6394 37.125 21.7938 32.5988 21.0894ZM33.7044 22.55C34.6384 22.6712 35.545 22.9502 36.3856 23.375C35.6345 23.7598 34.8251 24.018 33.99 24.1394C33.99 24.0931 34 24.0463 34 24C33.9986 23.5019 33.8982 23.0089 33.7044 22.55ZM9.80438 19.8431C9.94674 19.8068 10.0718 19.7215 10.1575 19.6022C10.2432 19.4829 10.2841 19.3372 10.2731 19.1906C10.2694 19.1431 10.2631 19.0969 10.25 19.0031C10.2481 18.5409 10.3749 18.0873 10.6162 17.6931C10.8575 17.2989 11.2038 16.9796 11.6163 16.7711C12.0288 16.5626 12.4912 16.473 12.9517 16.5125C13.4123 16.5519 13.8527 16.7188 14.2238 16.9944C14.2971 17.0482 14.3813 17.0854 14.4704 17.1034C14.5596 17.1213 14.6517 17.1196 14.7401 17.0983C14.8285 17.077 14.9113 17.0366 14.9825 16.98C15.0537 16.9234 15.1117 16.852 15.1525 16.7706C15.5519 15.9675 16.1603 15.2869 16.9137 14.8001C17.6671 14.3134 18.5377 14.0385 19.434 14.0044C20.3303 13.9703 21.2192 14.1783 22.0074 14.6064C22.7955 15.0346 23.4538 15.6671 23.9131 16.4375C23.987 16.5614 24.1015 16.656 24.2372 16.7051C24.3729 16.7542 24.5214 16.7548 24.6575 16.7069C25.0487 16.5695 25.4604 16.4995 25.875 16.5C26.8693 16.501 27.8225 16.8964 28.5256 17.5995C29.2286 18.3025 29.624 19.2558 29.625 20.25C29.6241 20.43 29.6097 20.6097 29.5819 20.7875C29.5684 20.8765 29.5743 20.9674 29.5991 21.0539C29.624 21.1404 29.6672 21.2205 29.7259 21.2888C29.7846 21.357 29.8574 21.4118 29.9392 21.4493C30.021 21.4869 30.11 21.5063 30.2 21.5063C30.2284 21.5058 30.2568 21.5037 30.285 21.5C30.942 21.5092 31.5689 21.7767 32.0302 22.2445C32.4915 22.7124 32.7501 23.343 32.75 24C32.7497 24.1245 32.7405 24.2487 32.7225 24.3719C28.1767 25.0066 23.5897 25.3001 19 25.25C14.3124 25.3047 9.62763 24.9946 4.98813 24.3225C5.35322 23.2332 5.98521 22.2526 6.82647 21.4702C7.66773 20.6878 8.69149 20.1284 9.80438 19.8431ZM4.43375 22.525C4.15375 23.0192 3.92706 23.5417 3.7575 24.0838C3.01073 23.9632 2.28806 23.7239 1.61687 23.375C2.50088 22.9341 3.45341 22.6467 4.43375 22.525ZM19 36.5C9.97062 36.5 2.51813 31.345 1.59688 24.75C2.39905 25.0525 3.22821 25.2779 4.07312 25.4231C7.5 26.0981 13.0813 26.5 19 26.5C23.8018 26.5593 28.6007 26.2364 33.3512 25.5344C34.3928 25.3787 35.4156 25.1158 36.4031 24.75C35.4831 31.3438 28.03 36.5 19 36.5Z" fill="#333333"/>
<path d="M24.8649 4.61515L28.0961 6.58265L29.7311 11.0752C29.9012 11.5424 30.2499 11.923 30.7006 12.1331C31.1513 12.3433 31.667 12.3658 32.1342 12.1958L36.2455 10.6995C36.7128 10.5294 37.0933 10.1807 37.3035 9.73004C37.5136 9.27938 37.5362 8.76368 37.3661 8.2964L34.5867 0.661403C34.5588 0.584199 34.516 0.513253 34.4606 0.452621C34.4052 0.391988 34.3385 0.342856 34.2641 0.308032C34.1898 0.273208 34.1093 0.253373 34.0273 0.249662C33.9453 0.245951 33.8633 0.258436 33.7861 0.286403L27.3255 2.63953L24.9761 3.49453C24.8656 3.53486 24.7687 3.60556 24.6966 3.6985C24.6245 3.79144 24.5801 3.90284 24.5685 4.01989C24.5569 4.13695 24.5785 4.25491 24.6309 4.36021C24.6834 4.46551 24.7645 4.55388 24.8649 4.61515ZM33.6249 1.6764L36.1874 8.7239C36.2153 8.80109 36.2278 8.88304 36.2241 8.96506C36.2204 9.04707 36.2006 9.12756 36.1657 9.20191C36.1309 9.27626 36.0818 9.34302 36.0212 9.39837C35.9605 9.45373 35.8896 9.4966 35.8124 9.52453L31.7011 11.0245C31.5813 11.0692 31.4505 11.0751 31.3272 11.0415C31.2038 11.0078 31.0942 10.9363 31.0136 10.837L32.113 10.4364L31.6861 9.26203L30.5461 9.6764L30.2592 8.88828L31.4336 8.46078L31.0067 7.28578L29.8317 7.7139L29.6249 7.12515L30.2124 6.9114L29.7849 5.73703L29.1974 5.95078C29.1492 5.81735 29.0571 5.70428 28.9361 5.63015L26.6249 4.2239L33.6249 1.6764Z" fill="#333333"/>
<path d="M24.625 11.5C25.1223 11.5 25.5992 11.3025 25.9508 10.9508C26.3025 10.5992 26.5 10.1223 26.5 9.62501C26.5 8.82626 25.5488 7.36189 25.1394 6.77001C25.0788 6.69118 25.0009 6.62733 24.9117 6.58339C24.8225 6.53945 24.7244 6.5166 24.625 6.5166C24.5256 6.5166 24.4275 6.53945 24.3383 6.58339C24.2491 6.62733 24.1712 6.69118 24.1106 6.77001C23.7012 7.36189 22.75 8.82626 22.75 9.62501C22.75 10.1223 22.9475 10.5992 23.2992 10.9508C23.6508 11.3025 24.1277 11.5 24.625 11.5ZM24.625 8.28376C24.9036 8.69463 25.1146 9.14744 25.25 9.62501C25.25 9.79077 25.1842 9.94974 25.0669 10.067C24.9497 10.1842 24.7908 10.25 24.625 10.25C24.4592 10.25 24.3003 10.1842 24.1831 10.067C24.0658 9.94974 24 9.79077 24 9.62501C24.1362 9.14771 24.3471 8.69501 24.625 8.28376Z" fill="#333333"/>
</svg>
