<svg width="32" height="43" viewBox="0 0 32 43" fill="none" xmlns="http://www.w3.org/2000/svg">
<path d="M17.9769 10.5493V9.95936C17.9769 8.96678 17.0959 8.15918 16.013 8.15918C14.9305 8.15918 14.0495 8.96678 14.0495 9.95936V10.5493C11.2707 11.3228 9.24219 13.6923 9.24219 16.4889C9.24219 16.7856 9.50445 17.026 9.82813 17.026H22.198C22.5216 17.026 22.7839 16.7856 22.7839 16.4889C22.7839 13.6923 20.7556 11.3228 17.9769 10.5493ZM15.2213 9.95936C15.2213 9.5591 15.5766 9.2334 16.013 9.2334C16.4497 9.2334 16.805 9.5591 16.805 9.95936V10.3261C16.5451 10.2982 16.2812 10.2823 16.013 10.2823C15.7452 10.2823 15.4812 10.2982 15.2213 10.3261V9.95936ZM10.4445 15.9516C10.7384 13.373 13.1237 11.3563 16.013 11.3563C18.9024 11.3563 21.2879 13.373 21.5818 15.9516H10.4445Z" fill="#333333"/>
<path d="M22.9975 19.2871H9.00391C8.68023 19.2871 8.41797 19.0467 8.41797 18.75C8.41797 18.4533 8.68023 18.2129 9.00391 18.2129H22.9973C23.3209 18.2129 23.5832 18.4533 23.5832 18.75C23.5832 19.0467 23.3209 19.2871 22.9975 19.2871Z" fill="#333333"/>
<path d="M7.63301 32.3575H4.66699C4.34332 32.3575 4.08105 32.1171 4.08105 31.8204V29.1016C4.08105 28.8049 4.34332 28.5645 4.66699 28.5645H7.63301C7.95668 28.5645 8.21894 28.8049 8.21894 29.1016V31.8204C8.21894 32.1171 7.95668 32.3575 7.63301 32.3575ZM5.25293 31.2833H7.04707V29.6387H5.25293V31.2833Z" fill="#333333"/>
<path d="M14.4548 30.9971H10.623C10.2994 30.9971 10.0371 30.7567 10.0371 30.46C10.0371 30.1633 10.2994 29.9229 10.623 29.9229H14.4548C14.7785 29.9229 15.0408 30.1633 15.0408 30.46C15.0408 30.7567 14.7785 30.9971 14.4548 30.9971Z" fill="#333333"/>
<path d="M20.5117 26.3163H17.5459C17.2222 26.3163 16.96 26.0759 16.96 25.7792V23.0605C16.96 22.7638 17.2222 22.5234 17.5459 22.5234H20.5117C20.8353 22.5234 21.0976 22.7638 21.0976 23.0605V25.7792C21.0976 26.0759 20.8353 26.3163 20.5117 26.3163ZM18.1318 25.2421H19.9257V23.5977H18.1318V25.2421Z" fill="#333333"/>
<path d="M27.334 24.9561H23.502C23.1783 24.9561 22.916 24.7156 22.916 24.4189C22.916 24.1222 23.1783 23.8818 23.502 23.8818H27.334C27.6576 23.8818 27.9199 24.1222 27.9199 24.4189C27.9199 24.7156 27.6576 24.9561 27.334 24.9561Z" fill="#333333"/>
<path d="M31.2872 3.97461H27.8184C27.4948 3.97461 27.2325 4.21502 27.2325 4.51172C27.2325 4.80842 27.4948 5.04883 27.8184 5.04883H30.7012V41.07H1.30078V5.04883H4.18359C4.50727 5.04883 4.76953 4.80842 4.76953 4.51172C4.76953 4.21502 4.50727 3.97461 4.18359 3.97461H0.714844C0.391172 3.97461 0.128906 4.21502 0.128906 4.51172V41.6071C0.128906 41.9038 0.391172 42.1442 0.714844 42.1442H31.2869C31.6106 42.1442 31.8729 41.9038 31.8729 41.6071V4.51172C31.8731 4.21502 31.6108 3.97461 31.2872 3.97461Z" fill="#333333"/>
<path d="M8.87109 5.04883H23.1309C23.4546 5.04883 23.7169 4.80842 23.7169 4.51172C23.7169 4.21502 23.4546 3.97461 23.1309 3.97461H8.87109C8.54742 3.97461 8.28516 4.21502 8.28516 4.51172C8.28516 4.80842 8.54742 5.04883 8.87109 5.04883Z" fill="#333333"/>
<path d="M6.52734 8.17035C6.85102 8.17035 7.11328 7.92994 7.11328 7.63324V1.3916C7.11328 1.0949 6.85102 0.854492 6.52734 0.854492C6.20367 0.854492 5.94141 1.0949 5.94141 1.3916V7.63324C5.94141 7.92994 6.20367 8.17035 6.52734 8.17035Z" fill="#333333"/>
<path d="M25.4766 8.17035C25.8002 8.17035 26.0625 7.92994 26.0625 7.63324V1.3916C26.0625 1.0949 25.8002 0.854492 25.4766 0.854492C25.1529 0.854492 24.8906 1.0949 24.8906 1.3916V7.63324C24.8906 7.92994 25.1529 8.17035 25.4766 8.17035Z" fill="#333333"/>
<path d="M4.08105 23.0605V25.7792C4.08105 26.0759 4.34332 26.3163 4.66699 26.3163H7.63301C7.95668 26.3163 8.21894 26.0759 8.21894 25.7792V23.0605C8.21894 22.7638 7.95668 22.5234 7.63301 22.5234H4.66699C4.34332 22.5234 4.08105 22.7638 4.08105 23.0605ZM5.25293 23.5977H7.04707V25.2421H5.25293V23.5977Z" fill="#333333"/>
<path d="M14.4568 23.8818H10.625C10.3013 23.8818 10.0391 24.1222 10.0391 24.4189C10.0391 24.7156 10.3013 24.9561 10.625 24.9561H14.4568C14.7805 24.9561 15.0427 24.7156 15.0427 24.4189C15.0427 24.1222 14.7805 23.8818 14.4568 23.8818Z" fill="#333333"/>
<path d="M7.63301 34.6045H4.66699C4.34332 34.6045 4.08105 34.8449 4.08105 35.1416V37.8605C4.08105 38.1572 4.34332 38.3976 4.66699 38.3976H7.63301C7.95668 38.3976 8.21894 38.1572 8.21894 37.8605V35.1416C8.21894 34.8449 7.95668 34.6045 7.63301 34.6045ZM7.04707 37.3231H5.25293V35.6785H7.04707V37.3231Z" fill="#333333"/>
<path d="M14.4568 35.9648H10.625C10.3013 35.9648 10.0391 36.2053 10.0391 36.502C10.0391 36.7987 10.3013 37.0391 10.625 37.0391H14.4568C14.7805 37.0391 15.0427 36.7987 15.0427 36.502C15.0427 36.2053 14.7805 35.9648 14.4568 35.9648Z" fill="#333333"/>
<path d="M17.5469 28.5645C17.2232 28.5645 16.9609 28.8049 16.9609 29.1016V31.8204C16.9609 32.1171 17.2232 32.3575 17.5469 32.3575H20.5127C20.8363 32.3575 21.0986 32.1171 21.0986 31.8204V29.1016C21.0986 28.8049 20.8363 28.5645 20.5127 28.5645H17.5469ZM19.9267 31.2833H18.1328V29.6387H19.9267V31.2833Z" fill="#333333"/>
<path d="M22.918 30.46C22.918 30.7567 23.1802 30.9971 23.5039 30.9971H27.3359C27.6596 30.9971 27.9219 30.7567 27.9219 30.46C27.9219 30.1633 27.6596 29.9229 27.3359 29.9229H23.5039C23.1802 29.9229 22.918 30.1633 22.918 30.46Z" fill="#333333"/>
<path d="M20.5127 38.3976H17.5469C17.2232 38.3976 16.9609 38.1572 16.9609 37.8605V35.1416C16.9609 34.8449 17.2232 34.6045 17.5469 34.6045H20.5127C20.8363 34.6045 21.0986 34.8449 21.0986 35.1416V37.8605C21.0986 38.1572 20.8363 38.3976 20.5127 38.3976ZM18.1328 37.3233H19.9267V35.6787H18.1328V37.3233Z" fill="#333333"/>
<path d="M27.3359 37.0391H23.5039C23.1802 37.0391 22.918 36.7987 22.918 36.502C22.918 36.2053 23.1802 35.9648 23.5039 35.9648H27.3359C27.6596 35.9648 27.9219 36.2053 27.9219 36.502C27.9219 36.7987 27.6596 37.0391 27.3359 37.0391Z" fill="#333333"/>
</svg>
